<?xml version="1.0" encoding="utf-8"?>
<!-- Generator: Adobe Illustrator 23.1.0, SVG Export Plug-In . SVG Version: 6.00 Build 0)  -->
<svg version="1.2" baseProfile="tiny" id="Layer_1" xmlns="http://www.w3.org/2000/svg" xmlns:xlink="http://www.w3.org/1999/xlink"
	 x="0px" y="0px" viewBox="0 0 594 108" xml:space="preserve">
<path fill-rule="evenodd" fill="#FFFFFF" d="M1.48,1.14h26.73l-0.23,20.15l0,0c6.2-11.4,16.3-20.15,30.29-20.15
	c26.8,0,26.91,20.95,26.91,28.95v77.6h-28.2v-69.2c0-4.2,0.2-14.4-9.2-14.4c-8,0-12.8,5.2-18.2,11v72.6H1.39v-106 M93.65,15.45
	c9-7,18-14,40.6-14c7.41,0,23.2,1.8,31.8,10.4c7.99,8,7.99,13.64,7.99,19.24v49.64c0,0.6,0.74,5.71,6.13,5.91l-0.02,21.03h-8.06
	c-13.6,0-19.24-9.54-21.85-14.34h-0.8c-3.4,4.4-5.4,6.8-9.8,9.4c-1.4,0.8-9.2,5.4-18.4,5.4c-11.2,0-28.4-5.8-28.4-30.2
	c0-9.8,3.6-23.04,22.8-31.84c10.2-4.6,21-6.79,30.4-7.4c0-10.4,0-11.04-2-13.84c-1.8-2.6-6.2-4.6-11.6-4.6
	c-12.2,0-19.8,6.6-25.6,11.6L93.65,15.45 M145.85,53.49c-6.2,1.2-26.4,2.64-26.4,20.84c0,7.21,4.4,13,11.2,13
	c12.8,0,15.2-10.44,15.2-17.44V53.49 M177.82,0.74l30.16,106.95h27.2L263.1,1.14h-26.54l-10.39,40.35c-2.2,8.4-2.6,10.8-4.6,18.99
	h-1l-4.2-16.99L205.71,1.14h-27.12 M265.5,15.45c9-7,18-14,40.59-14c7.4,0,23.2,1.8,31.8,10.4c8,8,8,16,8,21.6v47.28
	c0,0.6,0.83,5.71,6.24,5.91l-0.18,21.03h-8.2c-13.6,0-19.06-9.54-21.66-14.34h-0.8c-3.4,4.4-5.39,6.8-9.8,9.4
	c-1.4,0.8-9.2,5.4-18.39,5.4c-11.2,0-28.4-5.8-28.4-30.2c0-9.8,3.6-23.04,22.8-31.84c10.19-4.6,21-6.79,30.4-7.4
	c0-10.4,0-11.04-2-13.84c-1.8-2.6-6.2-4.6-11.6-4.6c-12.2,0-19.8,6.6-25.6,11.6L265.5,15.45 M317.7,53.49
	c-6.2,1.2-26.4,2.64-26.4,20.84c0,7.21,4.4,13,11.2,13c12.8,0,15.2-12.8,15.2-19.8V53.49 M360.02,107.69h28.6v-62.6
	c11.4-9.6,18.96-8.77,30.76-8.77l-0.03-35.18c-10.2,0.4-21.73,1.35-31.74,24.56h-0.8l-0.29-24.56H360L360.02,107.69 M431.54,1.14
	h27.32l-0.18,106.55h-27.59v-106 M529.23,1.14h29.88l-26.37,48.15l32.6,58.4h-31.2l-29.4-56.8l24.6-49.2 M501.34,107.69L501.15,1.14
	l-27.13-0.39l-0.48,106.95H501.34"/>
<g>
	<path fill-rule="evenodd" fill="#FFFFFF" d="M580.17,2.05h-3.14v11.24h-1.62V2.05h-3.15V0.94h7.91V2.05z"/>
	<path fill-rule="evenodd" fill="#FFFFFF" d="M587.53,11.57c0.57-2.05,1.65-5.38,3.38-10.63h2.47v12.35h-1.49
		c0-5.44,0.01-9.12,0.06-11.09h-0.06c-0.59,1.96-1.75,5.54-3.61,11.09h-1.56c-1.79-5.45-3-9.12-3.6-11.09h-0.06
		c0.07,1.97,0.07,5.64,0.07,11.09h-1.49V0.94h2.48c1.71,5.29,2.81,8.59,3.37,10.63H587.53z"/>
</g>
</svg>
