<svg xmlns="http://www.w3.org/2000/svg" viewBox="0 0 592 107.4"><title>logo_navarik_CC2017_blue</title><path d="M1.5,1.1H28.2L28,21.3h0C34.2,9.9,44.3,1.1,58.3,1.1c26.8,0,26.9,21,26.9,29v77.6H57V38.5c0-4.2.2-14.4-9.2-14.4S35,29.3,29.6,35.1v72.6H1.4V1.7M93.6,15.4c9-7,18-14,40.6-14,7.5,0,23.2,1.8,31.8,10.4s8,13.7,8,19.3V80.7a6.4,6.4,0,0,0,6.2,5.9v21.1h-8.1c-13.6,0-19.3-9.6-21.9-14.4h-.8c-3.4,4.4-5.4,6.8-9.8,9.4-1.4.8-9.2,5.4-18.4,5.4-11.2,0-28.3-5.8-28.3-30.2,0-9.8,3.5-23,22.7-31.8A88.8,88.8,0,0,1,146,38.7c0-10.4,0-11.1-2-13.9s-6.2-4.6-11.6-4.6c-12.2,0-19.8,6.6-25.5,11.6L93.6,15.4m52.2,38.1c-6.2,1.2-26.4,2.6-26.4,20.8,0,7.2,4.4,13,11.2,13,12.8,0,15.2-10.4,15.2-17.4V53.5M177.8.7l30.2,107h27.2L263.1,1.1H236.6L226.2,41.5c-2.2,8.4-2.6,10.8-4.6,19h-1l-4.2-17L205.7,1.1H178.6m86.9,14.3c9-7,18-14,40.6-14,7.4,0,23.2,1.8,31.8,10.4s8,16,8,21.6V80.7a6.4,6.4,0,0,0,6.2,5.9v21.1h-8.2c-13.7,0-19.1-9.6-21.7-14.4h-.8c-3.4,4.4-5.4,6.8-9.8,9.4-1.4.8-9.2,5.4-18.4,5.4-11.2,0-28.4-5.8-28.4-30.2,0-9.8,3.6-23,22.8-31.8a88.8,88.8,0,0,1,30.4-7.4c0-10.4,0-11.1-2-13.9s-6.2-4.6-11.6-4.6c-12.2,0-19.8,6.6-25.6,11.6L265.5,15.4m52.2,38.1c-6.2,1.2-26.4,2.6-26.4,20.8,0,7.2,4.4,13,11.2,13,12.8,0,15.2-12.8,15.2-19.8v-14M360,107.7h28.6V45.1c11.4-9.6,19-8.8,30.8-8.8V1.1c-10.2.4-21.8,1.4-31.8,24.6h-.8l-.3-24.6H360V107.7M431.5,1.1h27.4l-.2,106.6H431.1V1.7m98.1-.6h29.9L532.7,49.3l32.6,58.4H534.1L504.7,50.9,529.3,1.7m-28,106L501.1,1.1,474,.7l-.5,107h27.8" transform="translate(-1.4 -0.7)" style="fill:#004a98;fill-rule:evenodd"/><path d="M580.2,2.1H577V13.3h-1.6V2.1h-3.1V.9h7.9Z" transform="translate(-1.4 -0.7)" style="fill:#004a98;fill-rule:evenodd"/><path d="M587.5,11.6c.6-2.1,1.7-5.4,3.4-10.7h2.5V13.3h-1.5V2.2h0c-.6,2-1.8,5.5-3.6,11.1h-1.6c-1.8-5.5-3-9.1-3.6-11.1h0V13.3h-1.5V.9h2.5c1.7,5.3,2.8,8.6,3.4,10.7Z" transform="translate(-1.4 -0.7)" style="fill:#004a98;fill-rule:evenodd"/></svg>