<svg id="Layer_1" data-name="Layer 1" xmlns="http://www.w3.org/2000/svg" viewBox="0 0 259.2 86.4"><defs><style>.cls-1{fill:#231f20;}.cls-2{fill:#2bb673;}.cls-3{fill:#004a98;fill-rule:evenodd;}</style></defs><title>Untitled-6</title><path class="cls-1" d="M27,79V43h5.54V79Z"/><path class="cls-1" d="M40.25,52.72c0-4.17-.22-6.88-.29-9.73h4.9l.28,4.9h.15A8.56,8.56,0,0,1,53.06,43a7.29,7.29,0,0,1,7.35,5.34h.14a11.68,11.68,0,0,1,3.39-4A9,9,0,0,1,68.76,43c4.75,0,8.43,3.44,8.43,12.51V79H71.64V56.74c0-4.61-.65-9.07-4.82-9.07-2.31,0-4.32,2-5.11,5.34a13.85,13.85,0,0,0-.22,3.15V79H56V55.72c0-3.88-.65-8-4.76-8-2.3,0-4.53,2-5.18,5.78a18.19,18.19,0,0,0-.22,3V79H40.25Z"/><path class="cls-1" d="M84,72.77a10.93,10.93,0,0,0,5.62,1.81,4.75,4.75,0,0,0,5.11-5.06c0-2.68-.94-4.56-4.46-6.87-4.54-3-7-6-7-10A9.34,9.34,0,0,1,92.81,43,11,11,0,0,1,99,44.8L97.56,49a7.94,7.94,0,0,0-4.68-1.59,4.27,4.27,0,0,0-4.46,4.48c0,2.31.86,3.69,4.32,6,4,2.6,7.2,5.85,7.2,10.7,0,7-4.76,10.41-10.52,10.41a11.8,11.8,0,0,1-6.84-2Z"/><rect class="cls-2" y="6.99" width="9" height="72"/><path class="cls-3" d="M27,7.07h5.6l0,4.22h0C33.87,8.9,36,7.07,38.92,7.07c5.61,0,5.64,4.39,5.64,6.07V29.39H38.65V14.89c0-.88,0-3-1.93-3C35,11.88,34,13,32.91,14.18V29.39H27V7.19m19.33,2.88a11.69,11.69,0,0,1,8.5-2.93c1.55,0,4.86.37,6.67,2.17a4.81,4.81,0,0,1,1.67,4v10.4A1.32,1.32,0,0,0,64.46,25v4.41H62.76a5,5,0,0,1-4.57-3H58a6.32,6.32,0,0,1-2.06,2,8,8,0,0,1-3.85,1.13c-2.35,0-6-1.21-6-6.32,0-2.06.75-4.83,4.78-6.67a18.3,18.3,0,0,1,6.37-1.55c0-2.18,0-2.32-.42-2.9a3,3,0,0,0-2.43-1,7.93,7.93,0,0,0-5.37,2.43l-2.76-3.43m10.93,8c-1.3.25-5.53.55-5.53,4.36a2.48,2.48,0,0,0,2.35,2.73c2.68,0,3.18-2.19,3.18-3.66V18M64,7l6.32,22.4H76L81.83,7.07H76.27l-2.18,8.45c-.46,1.76-.54,2.27-1,4h-.21L72,15.94,69.8,7.07H64.12m18.21,3a11.72,11.72,0,0,1,8.51-2.93c1.55,0,4.86.37,6.66,2.17a5.69,5.69,0,0,1,1.68,4.53v9.9a1.34,1.34,0,0,0,1.3,1.24l0,4.41H98.73a4.93,4.93,0,0,1-4.54-3H94a6.39,6.39,0,0,1-2,2,8.12,8.12,0,0,1-3.86,1.13c-2.34,0-6-1.21-6-6.32,0-2.06.76-4.83,4.78-6.67a18.35,18.35,0,0,1,6.37-1.55c0-2.18,0-2.32-.42-2.9a3,3,0,0,0-2.43-1A7.88,7.88,0,0,0,85.1,13.5l-2.77-3.43m10.94,8c-1.3.25-5.53.55-5.53,4.36a2.47,2.47,0,0,0,2.34,2.73c2.68,0,3.19-2.69,3.19-4.15V18m8.86,11.35h6V16.28c2.38-2,4-1.84,6.44-1.84V7.07c-2.13.08-4.55.28-6.64,5.14h-.17l-.06-5.14h-5.56V29.39m15-22.32h5.72l0,22.32H117V7.19m20.56-.12h6.26l-5.52,10.09,6.83,12.23h-6.54l-6.16-11.9,5.16-10.3m-5.87,22.2,0-22.32L126,7l-.1,22.4h5.82"/><rect class="cls-2" x="152.35" y="20.39" width="9" height="9"/></svg>