<svg id="Layer_1" data-name="Layer 1" xmlns="http://www.w3.org/2000/svg" viewBox="0 0 259.2 86.4"><defs><style>.cls-1{fill:#231f20;}.cls-2{fill:#fbb040;}.cls-3{fill:#004a98;fill-rule:evenodd;}</style></defs><title>Untitled-6</title><path class="cls-1" d="M27,43.67A45.71,45.71,0,0,1,35.14,43c4.39,0,8.13.68,10.73,2.43A7.23,7.23,0,0,1,49,51.55c0,3.65-2.73,6.56-7.49,7.93v.16c5.62,1.06,9,4.39,9,9.09a8.8,8.8,0,0,1-3.46,7C44.35,78,39.82,79,34.27,79A53.41,53.41,0,0,1,27,78.62ZM32.54,58h2.52c4.54,0,8.43-2.23,8.43-5.93,0-3.33-2.09-5.51-8-5.51a13.94,13.94,0,0,0-3,.26Zm0,17.29a19.83,19.83,0,0,0,2.81.15c5.69,0,9.44-2.12,9.44-6.72,0-4.92-4.61-6.88-9.8-6.94H32.54Z"/><path class="cls-1" d="M86.37,79V43h5.55V79Z"/><path class="cls-1" d="M100.05,43.67a35.3,35.3,0,0,1,7.49-.68c5,0,8.71.95,11.38,2.69,3.74,2.38,6.55,7,6.55,14.44,0,8.14-2.73,12.58-5.83,15.06S111.79,79,106.25,79a42.92,42.92,0,0,1-6.2-.37Zm5.55,31.11a16.71,16.71,0,0,0,2.09.1c6.12,0,12-2.5,12-14.66,0-9-3.74-13.18-11.52-13.18a13.19,13.19,0,0,0-2.59.21Z"/><path class="cls-1" d="M155.93,77.78A32.64,32.64,0,0,1,147.36,79c-4.25,0-8.21-.84-11.45-3.41-3.53-2.73-5.91-7.61-5.83-14.12C130.15,47.66,139.8,43,148.37,43a19.78,19.78,0,0,1,6.84,1L154,48.45a15.58,15.58,0,0,0-5.54-.84c-6.05,0-12.6,2.51-12.6,13.48s5.69,13.43,11.52,13.43a9.15,9.15,0,0,0,3.38-.42V64.56h-6.26V60.2h11.45Z"/><rect class="cls-2" y="6.99" width="9" height="72"/><path class="cls-3" d="M27,7.07h5.6l0,4.22h0C33.87,8.9,36,7.07,38.92,7.07c5.61,0,5.64,4.39,5.64,6.07V29.39H38.65V14.89c0-.88,0-3-1.93-3C35,11.88,34,13,32.91,14.18V29.39H27V7.19m19.33,2.88a11.69,11.69,0,0,1,8.5-2.93c1.55,0,4.86.37,6.67,2.17a4.81,4.81,0,0,1,1.67,4v10.4A1.32,1.32,0,0,0,64.46,25v4.41H62.76a5,5,0,0,1-4.57-3H58a6.32,6.32,0,0,1-2.06,2,8,8,0,0,1-3.85,1.13c-2.35,0-6-1.21-6-6.32,0-2.06.75-4.83,4.78-6.67a18.3,18.3,0,0,1,6.37-1.55c0-2.18,0-2.32-.42-2.9a3,3,0,0,0-2.43-1,7.93,7.93,0,0,0-5.37,2.43l-2.76-3.43m10.93,8c-1.3.25-5.53.55-5.53,4.36a2.48,2.48,0,0,0,2.35,2.73c2.68,0,3.18-2.19,3.18-3.66V18M64,7l6.32,22.4H76L81.83,7.07H76.27l-2.18,8.45c-.46,1.76-.54,2.27-1,4h-.21L72,15.94,69.8,7.07H64.12m18.21,3a11.72,11.72,0,0,1,8.51-2.93c1.55,0,4.86.37,6.66,2.17a5.69,5.69,0,0,1,1.68,4.53v9.9a1.34,1.34,0,0,0,1.3,1.24l0,4.41H98.73a4.93,4.93,0,0,1-4.54-3H94a6.39,6.39,0,0,1-2,2,8.12,8.12,0,0,1-3.86,1.13c-2.34,0-6-1.21-6-6.32,0-2.06.76-4.83,4.78-6.67a18.35,18.35,0,0,1,6.37-1.55c0-2.18,0-2.32-.42-2.9a3,3,0,0,0-2.43-1A7.88,7.88,0,0,0,85.1,13.5l-2.77-3.43m10.94,8c-1.3.25-5.53.55-5.53,4.36a2.47,2.47,0,0,0,2.34,2.73c2.68,0,3.19-2.69,3.19-4.15V18m8.86,11.35h6V16.28c2.38-2,4-1.84,6.44-1.84V7.07c-2.13.08-4.55.28-6.64,5.14h-.17l-.06-5.14h-5.56V29.39m15-22.32h5.72l0,22.32H117V7.19m20.56-.12h6.26l-5.52,10.09,6.83,12.23h-6.54l-6.16-11.9,5.16-10.3m-5.87,22.2,0-22.32L126,7l-.1,22.4h5.82"/><rect class="cls-2" x="152.35" y="20.39" width="9" height="9"/><path class="cls-1" d="M56.16,44a32,32,0,0,1,8-.93c4.83,0,8.43,1,10.95,3.45s3.38,4.16,3.38,6.51c0,4.52-2.88,7.22-7.77,9.53v.14c3.59,1.08,5.41,3.55,6.48,9.87.63,3.79,2.08,4.88,2.8,6.4H74.38c-.72-1.44-1.34-1.52-1.91-5-1.1-6.69-3.85-9.27-8.61-9.27H61.7V79H56.16Zm5.54,16.4H64c5.33,0,9.64-2,9.64-6.72,0-3.9-3.09-6.08-9.07-6.15a10.92,10.92,0,0,0-2.88.29Z"/><path class="cls-1" d="M179.69,62.13H167.52v12h13.82V79H162V43h18.5v4.82h-13v9.64h12.17Z"/></svg>