<svg id="Layer_1" data-name="Layer 1" xmlns="http://www.w3.org/2000/svg" viewBox="0 0 259.2 86.4"><defs><style>.cls-1{fill:#00aeef;}.cls-2{fill:#004a98;fill-rule:evenodd;}.cls-3{fill:#231f20;}</style></defs><title>Untitled-6</title><rect class="cls-1" y="7.2" width="9" height="72"/><path class="cls-2" d="M27,7.28h5.6l0,4.22h0c1.3-2.38,3.42-4.22,6.35-4.22,5.61,0,5.64,4.39,5.64,6.07V29.61H38.65V15.11c0-.88,0-3-1.93-3-1.68,0-2.68,1.09-3.81,2.31V29.61H27V7.4m19.33,2.88a11.69,11.69,0,0,1,8.5-2.93c1.55,0,4.86.38,6.67,2.18a4.79,4.79,0,0,1,1.67,4V24a1.34,1.34,0,0,0,1.29,1.24v4.4H62.76a5,5,0,0,1-4.57-3H58a6.53,6.53,0,0,1-2.06,2,8.14,8.14,0,0,1-3.85,1.13c-2.35,0-6-1.22-6-6.33,0-2.05.75-4.83,4.78-6.67a18.75,18.75,0,0,1,6.37-1.55c0-2.18,0-2.31-.42-2.9a3,3,0,0,0-2.43-1,7.89,7.89,0,0,0-5.37,2.43l-2.76-3.44m10.93,8c-1.3.25-5.53.55-5.53,4.37a2.47,2.47,0,0,0,2.35,2.72c2.68,0,3.18-2.19,3.18-3.65V18.25M64,7.2l6.32,22.41H76L81.83,7.28H76.27l-2.18,8.46c-.46,1.76-.54,2.26-1,4h-.21L72,16.16,69.8,7.28H64.12m18.21,3a11.72,11.72,0,0,1,8.51-2.93c1.55,0,4.86.38,6.66,2.18a5.66,5.66,0,0,1,1.68,4.52V24a1.35,1.35,0,0,0,1.3,1.24l0,4.4H98.73a4.94,4.94,0,0,1-4.54-3H94a6.61,6.61,0,0,1-2,2,8.24,8.24,0,0,1-3.86,1.13c-2.34,0-6-1.22-6-6.33,0-2.05.76-4.83,4.78-6.67a18.81,18.81,0,0,1,6.37-1.55c0-2.18,0-2.31-.42-2.9a3,3,0,0,0-2.43-1,7.84,7.84,0,0,0-5.36,2.43l-2.77-3.44m10.94,8c-1.3.25-5.53.55-5.53,4.37a2.47,2.47,0,0,0,2.34,2.72c2.68,0,3.19-2.68,3.19-4.15V18.25m8.86,11.36h6V16.49c2.38-2,4-1.84,6.44-1.84V7.28c-2.13.09-4.55.29-6.64,5.15h-.17l-.06-5.15h-5.56V29.61m15-22.33h5.72l0,22.33H117V7.4m20.56-.12h6.26l-5.52,10.09,6.83,12.24h-6.54l-6.16-11.9L137.61,7.4m-5.87,22.21,0-22.33L126,7.2l-.1,22.41h5.82"/><rect class="cls-1" x="152.35" y="20.61" width="9" height="9"/><path class="cls-3" d="M32.76,43.2l4.39,20.23c.51,2.46,1.08,5.65,1.52,8.78h.21c.36-3,.94-6,1.44-8.78L44.64,43.2h5.47L41,79.2h-4.9L27,43.2Z"/><path class="cls-3" d="M57.89,61.78c.07,10.77,4.25,13,8.21,13a12.42,12.42,0,0,0,5.76-1.3l.93,4.05a16.87,16.87,0,0,1-7.7,1.66c-8.28,0-12.6-6.8-12.6-17.57,0-11.35,4.75-18.43,11.73-18.43s9.94,7.52,9.94,15.4c0,1.37-.07,2.31-.14,3.18Zm10.94-4.12c.08-7-2.52-10.12-5.18-10.12-3.6,0-5.47,5.35-5.69,10.12Z"/><path class="cls-3" d="M80.57,43.2h18.5V48h-13v9.14h9.1v4.68h-9.1V79.2H80.57Z"/></svg>