<svg id="Layer_1" data-name="Layer 1" xmlns="http://www.w3.org/2000/svg" viewBox="0 0 259.2 86.4"><defs><style>.cls-1{fill:#004a98;fill-rule:evenodd;}.cls-2{fill:#231f20;}.cls-3{fill:#ec008c;}</style></defs><title>Untitled-6</title><path class="cls-1" d="M27,7.28h5.6l0,4.22h0c1.3-2.38,3.42-4.22,6.35-4.22,5.61,0,5.64,4.39,5.64,6.07V29.61H38.65V15.11c0-.88,0-3-1.93-3-1.68,0-2.68,1.09-3.81,2.31V29.61H27V7.4m19.33,2.88a11.69,11.69,0,0,1,8.5-2.93c1.55,0,4.86.38,6.67,2.18a4.79,4.79,0,0,1,1.67,4V24a1.34,1.34,0,0,0,1.29,1.24v4.4H62.76a5,5,0,0,1-4.57-3H58a6.53,6.53,0,0,1-2.06,2,8.14,8.14,0,0,1-3.85,1.13c-2.35,0-6-1.22-6-6.33,0-2.05.75-4.83,4.78-6.67a18.75,18.75,0,0,1,6.37-1.55c0-2.18,0-2.31-.42-2.9a3,3,0,0,0-2.43-1,7.89,7.89,0,0,0-5.37,2.43l-2.76-3.44m10.93,8c-1.3.25-5.53.55-5.53,4.37a2.47,2.47,0,0,0,2.35,2.72c2.68,0,3.18-2.19,3.18-3.65V18.25M64,7.2l6.32,22.41H76L81.83,7.28H76.27l-2.18,8.46c-.46,1.76-.54,2.26-1,4h-.21L72,16.16,69.8,7.28H64.12m18.21,3a11.72,11.72,0,0,1,8.51-2.93c1.55,0,4.86.38,6.66,2.18a5.66,5.66,0,0,1,1.68,4.52V24a1.35,1.35,0,0,0,1.3,1.24l0,4.4H98.73a4.94,4.94,0,0,1-4.54-3H94a6.61,6.61,0,0,1-2,2,8.24,8.24,0,0,1-3.86,1.13c-2.34,0-6-1.22-6-6.33,0-2.05.76-4.83,4.78-6.67a18.81,18.81,0,0,1,6.37-1.55c0-2.18,0-2.31-.42-2.9a3,3,0,0,0-2.43-1,7.84,7.84,0,0,0-5.36,2.43l-2.77-3.44m10.94,8c-1.3.25-5.53.55-5.53,4.37a2.47,2.47,0,0,0,2.34,2.72c2.68,0,3.19-2.68,3.19-4.15V18.25m8.86,11.36h6V16.49c2.38-2,4-1.84,6.44-1.84V7.28c-2.13.09-4.55.29-6.64,5.15h-.17l-.06-5.15h-5.56V29.61m15-22.33h5.72l0,22.33H117V7.4m20.56-.12h6.26l-5.52,10.09,6.83,12.24h-6.54l-6.16-11.9L137.61,7.4m-5.87,22.21,0-22.33L126,7.2l-.1,22.41h5.82"/><path class="cls-2" d="M27,79.2v-36h5.54v36Z"/><path class="cls-2" d="M40.25,52.93c0-4.17-.22-6.87-.29-9.73h4.82L45.07,48h.15a8.83,8.83,0,0,1,8-4.83c4.82,0,8.42,3.59,8.42,12.22V79.2H56.09V56.37c0-4.24-.79-8.41-4.83-8.41-2.3,0-4.53,2-5.18,5.78a12.69,12.69,0,0,0-.29,3.14V79.2H40.25Z"/><path class="cls-2" d="M68.47,73a11,11,0,0,0,5.62,1.81,4.75,4.75,0,0,0,5.11-5.06c0-2.67-.94-4.55-4.46-6.87-4.54-3-7-6-7-10a9.35,9.35,0,0,1,9.58-9.69A11.07,11.07,0,0,1,83.52,45L82.08,49.2a7.94,7.94,0,0,0-4.68-1.59,4.27,4.27,0,0,0-4.46,4.48c0,2.31.86,3.69,4.32,6,4,2.6,7.2,5.86,7.2,10.7,0,7-4.76,10.41-10.52,10.41a11.89,11.89,0,0,1-6.84-2Z"/><path class="cls-2" d="M121,61.78c.07,10.77,4.25,13,8.21,13a12.38,12.38,0,0,0,5.76-1.3l.94,4.05a16.94,16.94,0,0,1-7.71,1.66c-8.28,0-12.6-6.8-12.6-17.57,0-11.35,4.75-18.43,11.74-18.43s9.93,7.52,9.93,15.4c0,1.37-.07,2.31-.14,3.18ZM132,57.66c.07-7-2.52-10.13-5.19-10.13-3.6,0-5.47,5.35-5.69,10.13Z"/><path class="cls-2" d="M160.27,77.9a11.92,11.92,0,0,1-5.76,1.3c-7.63,0-12.74-6.16-12.74-17.75,0-10.07,5-18.25,13.75-18.25a10.11,10.11,0,0,1,4.9,1.16l-1.09,4.49a8.84,8.84,0,0,0-4-.94c-5.62,0-8.07,6.66-8.07,13.54,0,8.19,3.1,13.11,8.21,13.11a8.24,8.24,0,0,0,4-.94Z"/><path class="cls-2" d="M172.87,43.2v8.17h6.7v4.19h-6.7V68.79c0,4.63,1.58,5.78,3.6,5.78a9.5,9.5,0,0,0,2.23-.21l.29,4.26a12.11,12.11,0,0,1-4.1.58,6.86,6.86,0,0,1-5.48-2.1c-1.44-1.59-2.09-4-2.09-8.82V55.56h-4.24V51.37h4.24V45.44Z"/><path class="cls-2" d="M184.46,79.2v-36H190v36Z"/><path class="cls-2" d="M207.5,79.2c-6.26,0-11.31-5.69-11.31-17.93,0-12.74,5.69-18.07,11.67-18.07,6.26,0,11.23,5.76,11.23,17.93,0,13.53-6.19,18.07-11.52,18.07Zm.29-4.39c4.75,0,5.76-8.14,5.76-13.61s-1-13.61-5.91-13.61-5.9,8.21-5.9,13.61c0,5.76,1,13.61,6,13.61Z"/><path class="cls-2" d="M225.28,52.93c0-4.17-.21-6.88-.29-9.73h4.83l.29,4.83h.14a8.81,8.81,0,0,1,8-4.83c4.83,0,8.43,3.58,8.43,12.22V79.2h-5.55V56.37c0-4.25-.79-8.42-4.82-8.42-2.3,0-4.54,2-5.18,5.78a12.83,12.83,0,0,0-.29,3.15V79.2h-5.55Z"/><path class="cls-2" d="M90.88,44.07A34.43,34.43,0,0,1,99,43.2c4.46,0,8.28,1,10.8,3.29,2.3,2.15,3.53,5.44,3.53,9.4,0,4.16-1.08,7-3,9.26-2.59,3.36-7.12,5-11.44,5-.94,0-1.66,0-2.45-.06V79.2H90.88Zm5.55,21.75a18.6,18.6,0,0,0,2.23.14c5.4,0,9.07-3.36,9.07-9.74,0-4.63-2-8.79-8.21-8.79a12.24,12.24,0,0,0-3.09.33Z"/><rect class="cls-3" y="7.2" width="9" height="72"/><rect class="cls-3" x="152.35" y="20.61" width="9" height="9"/></svg>